<svg width="11" height="9" viewBox="0 0 11 9" fill="none" xmlns="http://www.w3.org/2000/svg">
<path d="M9.38816 0.375H1.61184C1.27564 0.375364 0.953303 0.509083 0.715568 0.746818C0.477833 0.984553 0.344114 1.30689 0.34375 1.64309V7.35691C0.344114 7.69311 0.477833 8.01545 0.715568 8.25318C0.953303 8.49092 1.27564 8.62464 1.61184 8.625H9.38816C9.72436 8.62464 10.0467 8.49092 10.2844 8.25318C10.5222 8.01545 10.6559 7.69311 10.6562 7.35691V1.64309C10.6559 1.30689 10.5222 0.984553 10.2844 0.746818C10.0467 0.509083 9.72436 0.375364 9.38816 0.375ZM1.61184 1.0625H9.38816C9.54208 1.06268 9.68965 1.12391 9.7985 1.23275C9.90734 1.3416 9.96857 1.48917 9.96875 1.64309V1.90606L5.5 4.77878L1.03125 1.90606V1.64309C1.03143 1.48917 1.09266 1.3416 1.2015 1.23275C1.31035 1.12391 1.45792 1.06268 1.61184 1.0625ZM9.38816 7.9375H1.61184C1.45792 7.93732 1.31035 7.87609 1.2015 7.76725C1.09266 7.6584 1.03143 7.51083 1.03125 7.35691V2.7235L5.31403 5.47659C5.3695 5.51227 5.43405 5.53124 5.5 5.53124C5.56595 5.53124 5.6305 5.51227 5.68597 5.47659L9.96875 2.7235V7.35691C9.96857 7.51083 9.90734 7.6584 9.7985 7.76725C9.68965 7.87609 9.54208 7.93732 9.38816 7.9375Z" fill="#3A3A3A"/>
</svg>
