<svg width="14" height="12" viewBox="0 0 14 12" fill="none" xmlns="http://www.w3.org/2000/svg">
<path d="M5.96 0.319998L3.96 8.44L3.48 6.12C4.25333 6.12 4.89333 6.36 5.4 6.84C5.90667 7.32 6.16 7.96 6.16 8.76C6.16 9.56 5.90667 10.2133 5.4 10.72C4.89333 11.2267 4.26667 11.48 3.52 11.48C2.74667 11.48 2.10667 11.2267 1.6 10.72C1.09333 10.1867 0.84 9.53333 0.84 8.76C0.84 8.49333 0.853333 8.24 0.88 8C0.933333 7.76 1.01333 7.48 1.12 7.16C1.22667 6.81333 1.37333 6.4 1.56 5.92L3.44 0.319998H5.96ZM13.52 0.319998L11.52 8.44L11.04 6.12C11.8133 6.12 12.4533 6.36 12.96 6.84C13.4667 7.32 13.72 7.96 13.72 8.76C13.72 9.56 13.4667 10.2133 12.96 10.72C12.4533 11.2267 11.8267 11.48 11.08 11.48C10.3067 11.48 9.66667 11.2267 9.16 10.72C8.65333 10.1867 8.4 9.53333 8.4 8.76C8.4 8.49333 8.41333 8.24 8.44 8C8.49333 7.76 8.57333 7.48 8.68 7.16C8.78667 6.81333 8.93333 6.4 9.12 5.92L11 0.319998H13.52Z" fill="#E9E6DC"/>
</svg>
