<svg width="54" height="28" viewBox="0 0 54 28" fill="none" xmlns="http://www.w3.org/2000/svg">
<path d="M53.3813 12.5069C53.3807 12.5062 53.3802 12.5055 53.3794 12.5049L42.3575 1.53612C41.5318 0.714411 40.1963 0.717469 39.3743 1.54329C38.5525 2.369 38.5557 3.70455 39.3814 4.52637L46.7815 11.8906H2.10938C0.944367 11.8906 0 12.835 0 14C0 15.165 0.944367 16.1094 2.10938 16.1094H46.7814L39.3815 23.4736C38.5558 24.2954 38.5526 25.631 39.3744 26.4567C40.1964 27.2826 41.532 27.2855 42.3576 26.4639L53.3795 15.4951C53.3802 15.4945 53.3807 15.4937 53.3814 15.4931C54.2076 14.6686 54.2049 13.3287 53.3813 12.5069Z" fill="#DDD6BF"/>
</svg>
