<svg width="10" height="10" viewBox="0 0 10 10" fill="none" xmlns="http://www.w3.org/2000/svg">
<path d="M1.51148 10H8.48925C9.22073 10 9.81518 9.40555 9.81518 8.67407V2.06666C9.81518 1.33518 9.22073 0.740727 8.48925 0.740727H7.96334V0.370363C7.96334 0.166657 7.79665 0 7.59294 0C7.38923 0 7.22258 0.166657 7.22258 0.370363V0.740727H2.77815V0.370363C2.77815 0.166657 2.61146 0 2.40776 0C2.20405 0 2.0374 0.166657 2.0374 0.370363V0.740727H1.51148C0.779996 0.740727 0.185547 1.33518 0.185547 2.06666V8.67407C0.185547 9.40555 0.779996 10 1.51148 10ZM0.926305 2.06666C0.926305 1.74444 1.18926 1.48148 1.51148 1.48148H2.0374V1.85185C2.0374 2.05555 2.20405 2.22221 2.40776 2.22221C2.61146 2.22221 2.77812 2.05555 2.77812 1.85185V1.48148H7.22258V1.85185C7.22258 2.05555 7.38923 2.22221 7.59294 2.22221C7.79665 2.22221 7.9633 2.05555 7.9633 1.85185V1.48148H8.48922C8.81143 1.48148 9.07439 1.74444 9.07439 2.06666V8.67407C9.07439 8.99628 8.81143 9.25924 8.48922 9.25924H1.51148C1.18926 9.25924 0.926305 8.99628 0.926305 8.67407V2.06666Z" fill="#444444"/>
<path d="M2.87116 4.25891C3.12684 4.25891 3.33411 4.05164 3.33411 3.79596C3.33411 3.54028 3.12684 3.33301 2.87116 3.33301C2.61548 3.33301 2.4082 3.54028 2.4082 3.79596C2.4082 4.05164 2.61548 4.25891 2.87116 4.25891Z" fill="#444444"/>
<path d="M4.90827 4.25891C5.16395 4.25891 5.37122 4.05164 5.37122 3.79596C5.37122 3.54028 5.16395 3.33301 4.90827 3.33301C4.65258 3.33301 4.44531 3.54028 4.44531 3.79596C4.44531 4.05164 4.65258 4.25891 4.90827 4.25891Z" fill="#444444"/>
<path d="M6.94538 4.25891C7.20106 4.25891 7.40833 4.05164 7.40833 3.79596C7.40833 3.54028 7.20106 3.33301 6.94538 3.33301C6.68969 3.33301 6.48242 3.54028 6.48242 3.79596C6.48242 4.05164 6.68969 4.25891 6.94538 4.25891Z" fill="#444444"/>
<path d="M2.87116 6.11146C3.12684 6.11146 3.33411 5.90419 3.33411 5.6485C3.33411 5.39282 3.12684 5.18555 2.87116 5.18555C2.61548 5.18555 2.4082 5.39282 2.4082 5.6485C2.4082 5.90419 2.61548 6.11146 2.87116 6.11146Z" fill="#444444"/>
<path d="M4.90827 6.11146C5.16395 6.11146 5.37122 5.90419 5.37122 5.6485C5.37122 5.39282 5.16395 5.18555 4.90827 5.18555C4.65258 5.18555 4.44531 5.39282 4.44531 5.6485C4.44531 5.90419 4.65258 6.11146 4.90827 6.11146Z" fill="#444444"/>
<path d="M6.94538 6.11146C7.20106 6.11146 7.40833 5.90419 7.40833 5.6485C7.40833 5.39282 7.20106 5.18555 6.94538 5.18555C6.68969 5.18555 6.48242 5.39282 6.48242 5.6485C6.48242 5.90419 6.68969 6.11146 6.94538 6.11146Z" fill="#444444"/>
<path d="M2.87116 7.96302C3.12684 7.96302 3.33411 7.75575 3.33411 7.50007C3.33411 7.24438 3.12684 7.03711 2.87116 7.03711C2.61548 7.03711 2.4082 7.24438 2.4082 7.50007C2.4082 7.75575 2.61548 7.96302 2.87116 7.96302Z" fill="#444444"/>
<path d="M4.90827 7.96302C5.16395 7.96302 5.37122 7.75575 5.37122 7.50007C5.37122 7.24438 5.16395 7.03711 4.90827 7.03711C4.65258 7.03711 4.44531 7.24438 4.44531 7.50007C4.44531 7.75575 4.65258 7.96302 4.90827 7.96302Z" fill="#444444"/>
<path d="M6.94538 7.96302C7.20106 7.96302 7.40833 7.75575 7.40833 7.50007C7.40833 7.24438 7.20106 7.03711 6.94538 7.03711C6.68969 7.03711 6.48242 7.24438 6.48242 7.50007C6.48242 7.75575 6.68969 7.96302 6.94538 7.96302Z" fill="#444444"/>
</svg>
