<svg width="10" height="18" viewBox="0 0 10 18" fill="none" xmlns="http://www.w3.org/2000/svg">
<path d="M2.72677 9.92324C2.66197 9.92324 1.23637 9.92324 0.588366 9.92324C0.242766 9.92324 0.134766 9.79364 0.134766 9.46964C0.134766 8.60564 0.134766 7.72004 0.134766 6.85604C0.134766 6.51044 0.264366 6.40244 0.588366 6.40244H2.72677C2.72677 6.33764 2.72677 5.08484 2.72677 4.50164C2.72677 3.63764 2.87796 2.81684 3.30996 2.06084C3.76356 1.28324 4.41156 0.76484 5.23236 0.46244C5.77236 0.26804 6.31236 0.181641 6.89556 0.181641H9.01236C9.31476 0.181641 9.44436 0.311241 9.44436 0.613641V3.07604C9.44436 3.37844 9.31476 3.50804 9.01236 3.50804C8.42916 3.50804 7.84596 3.50804 7.26276 3.52964C6.67956 3.52964 6.37716 3.81044 6.37716 4.41524C6.35556 5.06324 6.37716 5.68964 6.37716 6.35924H8.88276C9.22836 6.35924 9.35796 6.48884 9.35796 6.83444V9.44804C9.35796 9.79364 9.24996 9.90164 8.88276 9.90164C8.10516 9.90164 6.44196 9.90164 6.37716 9.90164V16.9432C6.37716 17.3104 6.26916 17.44 5.88036 17.44C4.97317 17.44 4.08756 17.44 3.18037 17.44C2.85637 17.44 2.72677 17.3104 2.72677 16.9864C2.72677 14.7184 2.72677 9.98804 2.72677 9.92324Z" fill="#3B5998"/>
</svg>
