<svg width="29" height="29" viewBox="0 0 29 29" fill="none" xmlns="http://www.w3.org/2000/svg">
<path d="M27.625 13.4062H19.9688C17.5691 13.4062 15.5938 15.3816 15.5938 17.7812C15.5938 20.1809 17.5691 22.1562 19.9688 22.1562H24.3438V25.4375C24.3438 26.038 23.8505 26.5312 23.25 26.5312H5.75C3.94969 26.5312 2.46875 25.0503 2.46875 23.25V6.84375C2.46875 5.04344 3.94969 3.5625 5.75 3.5625H7.9375C8.53797 3.5625 9.03125 3.06922 9.03125 2.46875C9.03125 1.86828 8.53797 1.375 7.9375 1.375H5.75C2.74984 1.375 0.28125 3.84359 0.28125 6.84375V23.25C0.28125 26.2502 2.74984 28.7188 5.75 28.7188H23.25C25.0503 28.7188 26.5312 27.2378 26.5312 25.4375V22.1562H27.625C28.2255 22.1562 28.7188 21.663 28.7188 21.0625V14.5C28.7188 13.8995 28.2255 13.4062 27.625 13.4062ZM26.5312 19.9688H19.9688C18.7689 19.9688 17.7812 18.9811 17.7812 17.7812C17.7812 16.5814 18.7689 15.5938 19.9688 15.5938H26.5312V19.9688Z" fill="white"/>
<path d="M5.35617 5.82628C4.13555 6.35893 4.53914 7.93721 5.74992 7.93721H23.2499C23.8504 7.93721 24.3437 8.4305 24.3437 9.03096V10.1247C24.3437 10.7252 24.837 11.2185 25.4374 11.2185C26.0379 11.2185 26.5312 10.7252 26.5312 10.1247V9.03096C26.5301 8.16143 26.1845 7.3269 25.5687 6.71221C24.954 6.09643 24.1195 5.75081 23.2499 5.74971H22.8999L20.9859 0.970026C20.7638 0.417683 20.1295 0.142057 19.5749 0.357526L5.35617 5.82628ZM20.5374 5.74971H11.6452L19.3562 2.78565L20.5374 5.74971Z" fill="white"/>
</svg>
